<?xml version="1.0" encoding="UTF-8" standalone="no"?>
<svg version="1.1" width="1024" height="1024" viewBox="0 0 1024 1024" xmlns="http://www.w3.org/2000/svg">
  <defs>
    <linearGradient id="vc-gradient" x1="0%" y1="100%" x2="100%" y2="0%">
      <stop offset="0%" style="stop-color:#3A00E0;stop-opacity:1" />
      <stop offset="100%" style="stop-color:#00F2FE;stop-opacity:1" />
    </linearGradient>
    <clipPath id="rounded">
      <rect width="1024" height="1024" rx="220" ry="220" />
    </clipPath>
  </defs>

  <!-- Rounded-rectangle background -->
  <rect width="1024" height="1024" rx="220" ry="220" fill="url(#vc-gradient)" />

  <!-- VC lettermark — scaled to 0.65 and centred -->
  <g transform="translate(190, 195) scale(0.65)" clip-path="url(#rounded)">
    <path
       fill="#FFFFFF"
       d="m 336.56227,827.86313 c -14.77147,-39.50388 -29.52953,-78.96898 -32.79565,-87.70024 -3.26613,-8.73127 -7.54037,-20.06575 -9.49831,-25.18773 -1.95796,-5.12198 -3.55991,-9.62809 -3.55991,-10.01357 0,-0.38546 -2.44,-6.91037 -5.42222,-14.49983 -2.98223,-7.58944 -5.9425,-15.38648 -6.57836,-17.32675 -1.11431,-3.40031 -37.75647,-101.25834 -49.79925,-132.99592 -1.61939,-4.26777 -7.19516,-19.34904 -12.39058,-33.51394 C 202.05845,467.20238 187.84587,429.0018 168.545,377.68315 158.87599,351.97443 146.05266,317.84312 140.04869,301.83581 117.70793,242.27245 99.911073,194.90883 97.299296,188.0648 89.948074,168.80129 65.828624,103.71345 65.828624,103.13925 c 0,-0.36158 32.098739,-0.45127 71.330536,-0.19933 l 71.33053,0.45808 28.48179,75.84733 c 24.82732,66.11545 69.07387,184.3868 103.93273,277.81295 13.22665,35.4491 39.82484,106.42985 50.23393,134.05577 4.20367,11.1566 16.21532,43.4868 26.69257,71.84489 10.47726,28.35807 19.59877,51.3599 20.27004,51.11518 0.67125,-0.24474 4.29025,-8.7624 8.0422,-18.92814 5.97849,-16.19845 17.73795,-47.72246 34.20134,-91.6847 14.03162,-37.46865 58.75409,-156.29789 63.73026,-169.33359 9.02628,-23.64554 10.38602,-27.25476 32.89406,-87.31264 5.09014,-13.58196 10.68544,-28.4648 12.434,-33.07297 l 3.17918,-8.37848 h 70.9447 c 42.02139,0 70.94469,0.6595 70.94469,1.61764 0,1.65443 -2.73637,9.41467 -9.38116,26.60463 -8.22529,21.27867 -41.51764,110.16426 -64.08504,171.09749 -8.44365,22.79829 -20.25325,54.54834 -26.24355,70.55565 -13.6308,36.42425 -54.77809,147.0645 -68.22339,183.44474 -5.55742,15.03717 -12.09357,32.4997 -14.52479,38.80562 -2.43123,6.30591 -12.12528,31.90439 -21.54232,56.88551 l -17.12192,45.42021 -74.96473,-0.0535 -74.96474,-0.0535 z m 224.00187,71.02198 c 0,-0.5108 6.64986,-18.17599 14.77745,-39.25597 8.1276,-21.07997 19.66443,-51.42413 25.63742,-67.43144 5.97299,-16.00732 12.44129,-33.27141 14.37399,-38.36465 2.34475,-6.17909 4.41458,-9.27278 6.22055,-9.29755 1.48859,-0.0204 30.36675,-0.0232 64.17368,-0.007 33.80692,0.0177 62.15759,-0.56164 63.00147,-1.28581 1.40708,-1.20745 12.35578,-29.06803 43.84095,-111.55988 l 11.78163,-30.8681 69.99385,-0.45842 c 38.49662,-0.25134 69.99385,0.21653 69.99385,1.04052 0,1.48843 -13.64997,37.84843 -40.83725,108.77997 -14.99225,39.11472 -15.96388,41.63097 -29.83198,77.25728 -4.83356,12.41714 -8.78829,22.85371 -8.78829,23.1924 0,0.33869 -3.00699,8.03861 -6.68222,17.11093 -3.67521,9.07233 -11.33406,28.7983 -17.01965,43.83548 l -10.33745,27.34032 -135.14901,0.45035 c -74.33194,0.24769 -135.14899,0.0325 -135.14899,-0.47838 z M 432.65716,576.84394 c -2.80113,-7.1886 -6.82934,-17.83273 -8.95157,-23.65357 -8.13821,-22.32157 -44.62988,-119.01268 -51.31654,-135.97222 l -7.01467,-17.79145 20.58057,-53.64616 c 11.31932,-29.50537 26.13884,-68.33053 32.93228,-86.27813 6.79344,-17.9476 20.55465,-54.06328 30.58047,-80.25708 10.02583,-26.19378 20.71148,-54.17351 23.74591,-62.17717 l 5.51714,-14.55211 H 654.6731 830.61544 l 7.56847,18.96184 c 4.16265,10.429 14.84644,37.61499 23.74177,60.41328 40.51903,103.84842 51.02736,130.70506 56.93872,145.52107 11.56197,28.9785 25.49458,64.76052 25.49458,65.47573 0,0.38779 -31.48795,0.49881 -69.97325,0.24667 l -69.97324,-0.45841 -22.18097,-55.56259 C 770.03198,306.55422 757.6917,275.39341 754.80865,267.86742 l -5.2419,-13.68364 -92.48254,0.45445 -92.48254,0.45445 -9.66721,25.57643 c -5.31697,14.06704 -13.4058,35.49832 -17.9752,47.62508 -4.56939,12.12675 -9.82688,26.01739 -11.68331,30.8681 -4.7169,12.3249 -53.88448,143.55642 -78.31247,209.02117 -3.80107,10.18646 -7.42904,19.24308 -8.06217,20.12579 -0.63313,0.88272 -3.44301,-4.27666 -6.24415,-11.46531 z"
       id="path893" />
  </g>
</svg>
